<svg width="197" height="21" viewBox="0 0 197 21" fill="none" xmlns="http://www.w3.org/2000/svg"><path d="M170.138 10.6371C170.21 8.08736 173.547 8.08531 173.618 10.6371C173.654 11.9212 175.636 11.9253 175.599 10.6371C175.54 8.50377 174.101 6.65967 171.878 6.65967C169.655 6.65967 168.22 8.50582 168.157 10.6371C168.122 11.9233 170.104 11.9233 170.138 10.6371Z" fill="#DF5B5F"/><path d="M120.39 12.3212C120.643 12.3135 120.888 12.4071 121.073 12.5817C121.257 12.7563 121.365 12.9975 121.374 13.2525V13.314C121.373 13.452 121.345 13.5884 121.29 13.7147C121.235 13.8411 121.155 13.9546 121.055 14.0484C120.045 14.9282 118.742 15.3897 117.409 15.3402C116.075 15.2907 114.81 14.734 113.867 13.7817C113.366 13.2921 112.97 12.7039 112.703 12.0537C112.436 11.4034 112.305 10.7049 112.316 10.0012C112.306 9.29928 112.439 8.60272 112.705 7.95435C112.972 7.30598 113.367 6.7195 113.867 6.23096C114.352 5.7264 114.934 5.3273 115.578 5.05815C116.222 4.78901 116.913 4.6555 117.61 4.66583C118.883 4.64315 120.117 5.10698 121.065 5.9643C121.266 6.14574 121.387 6.40024 121.402 6.67183C121.417 6.94342 121.324 7.20984 121.144 7.4125L121.126 7.43301C121.035 7.52741 120.925 7.60168 120.804 7.65112C120.683 7.70055 120.553 7.72407 120.423 7.72019C120.188 7.72365 119.96 7.64213 119.78 7.49045C119.477 7.23174 119.133 7.02396 118.764 6.87506C118.395 6.73551 118.004 6.66597 117.61 6.66994C117.165 6.66821 116.725 6.75753 116.315 6.9325C115.922 7.1028 115.562 7.34556 115.257 7.6484C114.958 7.9479 114.718 8.30229 114.551 8.6925C114.379 9.10662 114.291 9.55116 114.291 10.0002C114.291 10.4492 114.379 10.8938 114.551 11.3079C114.718 11.7059 114.96 12.0669 115.265 12.3705C115.569 12.6756 115.928 12.9187 116.324 13.0863C116.732 13.2642 117.173 13.3536 117.618 13.3489C118.012 13.3549 118.404 13.2853 118.772 13.1438C119.139 12.9983 119.478 12.7902 119.774 12.5284C119.954 12.3973 120.169 12.325 120.39 12.3212Z" fill="#DBD7AD"/><path d="M133.523 10.0012C133.536 10.7052 133.405 11.4044 133.139 12.0549C132.872 12.7055 132.475 13.2933 131.972 13.7817C130.979 14.7833 129.633 15.346 128.229 15.346C126.825 15.346 125.478 14.7833 124.485 13.7817C123.984 13.2921 123.588 12.7039 123.322 12.0537C123.055 11.4034 122.923 10.7049 122.935 10.0012C122.925 9.29927 123.057 8.60271 123.324 7.95434C123.591 7.30598 123.986 6.7195 124.485 6.23096C124.975 5.73475 125.557 5.34077 126.197 5.07151C126.838 4.80224 127.525 4.66296 128.219 4.66163C128.913 4.6603 129.6 4.79693 130.242 5.06373C130.883 5.33054 131.466 5.72228 131.958 6.2166L131.972 6.23096C132.468 6.72349 132.862 7.3106 133.131 7.95814C133.389 8.60773 133.522 9.30119 133.523 10.0012ZM128.239 6.65147C127.79 6.64864 127.346 6.74016 126.934 6.92019C126.142 7.26307 125.514 7.90293 125.18 8.7048C125.008 9.11533 124.92 9.55652 124.92 10.0022C124.92 10.448 125.008 10.8892 125.18 11.2997C125.346 11.6964 125.586 12.0577 125.885 12.3643C126.193 12.6785 126.559 12.928 126.963 13.0982C127.366 13.2685 127.799 13.3562 128.237 13.3562C128.674 13.3562 129.107 13.2685 129.511 13.0982C129.915 12.928 130.281 12.6785 130.588 12.3643C130.886 12.0555 131.123 11.693 131.287 11.2956C131.459 10.8865 131.548 10.4466 131.548 10.0022C131.548 9.55784 131.459 9.11799 131.287 8.70891C131.119 8.31254 130.878 7.95147 130.578 7.64429C130.276 7.33671 129.918 7.09085 129.523 6.92019C129.112 6.73934 128.667 6.64779 128.219 6.65147H128.239Z" fill="#DBD7AD"/><path d="M140.321 4.65779C141.529 4.64271 142.704 5.05818 143.639 5.83113V1.0701C143.631 0.815257 143.724 0.567542 143.896 0.381381C144.069 0.195221 144.308 0.0858434 144.56 0.0772798H144.629C144.892 0.0729866 145.145 0.174056 145.334 0.358305C145.429 0.450158 145.503 0.560907 145.553 0.683472C145.603 0.806037 145.627 0.93772 145.623 1.0701V10.0014C145.636 10.7053 145.506 11.4045 145.239 12.0551C144.972 12.7056 144.575 13.2935 144.072 13.7819C143.332 14.53 142.388 15.0396 141.361 15.2461C140.333 15.4526 139.268 15.3468 138.3 14.942C137.332 14.5373 136.505 13.8517 135.924 12.9722C135.342 12.0927 135.032 11.0588 135.033 10.0014C135.022 9.30044 135.153 8.60467 135.418 7.95647C135.682 7.30827 136.075 6.72123 136.571 6.23113C137.056 5.72393 137.639 5.3226 138.284 5.05198C138.929 4.78136 139.622 4.6472 140.321 4.65779ZM143.639 10.0014C143.641 9.55722 143.552 9.11744 143.379 8.70908C143.209 8.31296 142.968 7.95201 142.668 7.64446C142.365 7.3382 142.007 7.09253 141.613 6.92036C141.109 6.70349 140.559 6.61626 140.012 6.66647C139.466 6.71669 138.941 6.90279 138.483 7.20812C138.025 7.51345 137.65 7.92849 137.39 8.41612C137.131 8.90375 136.995 9.44876 136.995 10.0024C136.995 10.5561 137.131 11.1011 137.39 11.5887C137.65 12.0763 138.025 12.4914 138.483 12.7967C138.941 13.102 139.466 13.2881 140.012 13.3383C140.559 13.3886 141.109 13.3013 141.613 13.0845C142.007 12.9123 142.365 12.6658 142.668 12.3583C142.968 12.0517 143.208 11.6914 143.377 11.2957C143.552 10.8872 143.642 10.4465 143.639 10.0014Z" fill="#DBD7AD"/><path d="M155.183 12.34C155.436 12.3334 155.681 12.428 155.866 12.6032C156.05 12.7784 156.158 13.02 156.167 13.2754V13.3349C156.169 13.4674 156.145 13.599 156.096 13.722C156.047 13.845 155.975 13.9568 155.882 14.0508C154.869 14.9317 153.564 15.3937 152.228 15.3442C150.892 15.2948 149.624 14.7375 148.678 13.7841C148.177 13.2945 147.781 12.7063 147.514 12.0561C147.247 11.4058 147.116 10.7073 147.127 10.0036C147.118 9.30179 147.251 8.60552 147.518 7.95729C147.784 7.30906 148.179 6.72248 148.678 6.23335C149.671 5.23162 151.018 4.66895 152.422 4.66895C153.826 4.66895 155.173 5.23162 156.167 6.23335C156.664 6.72331 157.06 7.30926 157.329 7.95642C157.591 8.60768 157.723 9.30481 157.717 10.0077C157.721 10.1391 157.697 10.2698 157.648 10.3916C157.599 10.5134 157.526 10.6237 157.433 10.7154C157.34 10.8074 157.229 10.8796 157.108 10.9279C156.987 10.9762 156.858 10.9995 156.727 10.9964H149.236C149.34 11.3409 149.5 11.6655 149.71 11.9564C150.121 12.5328 150.702 12.9634 151.37 13.1872C151.709 13.3036 152.065 13.3619 152.423 13.3595C152.813 13.3651 153.2 13.3005 153.567 13.1687C153.92 13.0371 154.247 12.8418 154.531 12.5923C154.712 12.4344 154.943 12.3452 155.183 12.34ZM155.604 9.00873C155.498 8.665 155.336 8.34131 155.126 8.05078C154.917 7.76693 154.667 7.51599 154.384 7.30617C154.101 7.09909 153.789 6.93656 153.457 6.82411C153.121 6.70948 152.768 6.65127 152.413 6.65181C152.056 6.65228 151.702 6.71045 151.364 6.82411C151.03 6.93648 150.714 7.09898 150.427 7.30617C150.152 7.51546 149.91 7.76665 149.71 8.05078C149.501 8.34026 149.344 8.6645 149.247 9.00873H155.604Z" fill="#DBD7AD"/><path d="M170.128 10.3009C170.171 15.0516 164.367 17.4455 161.091 14.0793C159.022 12.0957 159.022 8.50804 161.091 6.52239C164.399 3.15419 170.136 5.55214 170.128 10.3009ZM164.844 6.95111C162.517 6.90188 160.845 9.46188 161.786 11.5993C162.928 14.3296 166.759 14.3152 167.903 11.5993C168.838 9.46188 167.147 6.90804 164.834 6.95111H164.844Z" fill="#DF5B5F"/><path d="M184.206 10.3009C184.259 15.0516 178.436 17.4373 175.168 14.0793C173.099 12.0957 173.099 8.50804 175.168 6.52239C178.477 3.15419 184.216 5.55214 184.206 10.3009ZM178.922 6.95111C176.595 6.90188 174.922 9.46188 175.863 11.5993C177.006 14.3296 180.836 14.3152 181.981 11.5993C182.907 9.46188 181.225 6.90804 178.912 6.95111H178.922Z" fill="#DF5B5F"/><path d="M188.098 5.77779C188.784 5.26159 189.593 4.93535 190.442 4.83137C191.292 4.72739 192.154 4.84928 192.943 5.18497C193.528 5.43926 194.061 5.80016 194.516 6.24958C194.973 6.70275 195.339 7.24037 195.595 7.83317C195.863 8.44508 196.001 9.10672 196.002 9.77574V14.4814C196.004 14.6135 195.98 14.7447 195.93 14.8669C195.88 14.989 195.805 15.0994 195.711 15.1911C195.621 15.2857 195.513 15.3605 195.394 15.4107C195.274 15.4608 195.145 15.4852 195.016 15.4824C194.755 15.4874 194.502 15.3875 194.314 15.2048C194.126 15.0222 194.017 14.7716 194.012 14.508V9.77574C194.015 9.37723 193.935 8.98253 193.778 8.61676C193.472 7.90182 192.907 7.33174 192.199 7.02292C191.836 6.8676 191.446 6.78755 191.052 6.78755C190.658 6.78755 190.268 6.8676 189.905 7.02292C189.555 7.17447 189.237 7.39165 188.968 7.66292C188.693 7.93535 188.474 8.2594 188.324 8.61676C188.169 8.98172 188.09 9.37475 188.092 9.77164V14.4814C188.094 14.6133 188.07 14.7443 188.02 14.8663C187.971 14.9884 187.897 15.0989 187.803 15.1911C187.713 15.2852 187.605 15.3597 187.486 15.4098C187.366 15.4599 187.238 15.4846 187.108 15.4824C186.979 15.4838 186.85 15.4593 186.73 15.4104C186.61 15.3615 186.501 15.2891 186.408 15.1974C186.316 15.1058 186.242 14.9966 186.192 14.8762C186.142 14.7558 186.115 14.6265 186.114 14.4957V5.79625C186.113 5.66513 186.138 5.53512 186.188 5.41392C186.237 5.29271 186.311 5.18277 186.403 5.09061C186.495 4.9942 186.605 4.91814 186.728 4.86728C186.85 4.81642 186.982 4.79188 187.114 4.79522C187.373 4.79783 187.62 4.90187 187.803 5.08529C187.987 5.26871 188.093 5.51709 188.098 5.77779Z" fill="#DBD7AD"/><path d="M11.719 11.9229C11.8533 11.9227 11.9862 11.9506 12.1092 12.0049C12.2273 12.0582 12.3352 12.1318 12.4283 12.2223C12.5212 12.3145 12.5958 12.4238 12.6478 12.5444C12.7007 12.6702 12.7277 12.8056 12.7271 12.9423C12.726 13.0793 12.6977 13.2147 12.644 13.3405C12.5902 13.4662 12.5121 13.5799 12.4141 13.6747C11.0633 14.7917 9.36813 15.3968 7.62195 15.3854C6.6192 15.4004 5.62404 15.2079 4.69781 14.8198C3.77157 14.4317 2.93389 13.8563 2.23638 13.129C1.51582 12.425 0.945735 11.5795 0.561261 10.6446C0.176787 9.70969 -0.0139299 8.70524 0.000864365 7.69311C-0.0145323 6.68091 0.17591 5.67627 0.560419 4.74129C0.944929 3.80632 1.51533 2.96087 2.23638 2.25722C2.93389 1.52992 3.77157 0.954508 4.69781 0.566441C5.62404 0.178373 6.6192 -0.0141258 7.62195 0.000806778C9.40784 -0.00318663 11.1368 0.634525 12.4994 1.79978C12.5896 1.89164 12.6599 2.00147 12.7057 2.12225C12.7516 2.24304 12.772 2.37213 12.7657 2.50132C12.7677 2.63581 12.7431 2.76936 12.6931 2.89408C12.6432 3.01879 12.5691 3.13216 12.4751 3.22747C12.3827 3.32039 12.2728 3.39363 12.1519 3.44286C11.9699 3.51918 11.7698 3.54043 11.576 3.50401C11.3823 3.46759 11.2032 3.37507 11.0606 3.23773C10.5811 2.85574 10.0419 2.55695 9.46523 2.35363C8.86911 2.14599 8.2424 2.04195 7.61178 2.04594C6.87592 2.03665 6.1459 2.17883 5.46628 2.4638C4.78667 2.74876 4.17173 3.17054 3.65898 3.70337C3.13248 4.22113 2.7166 4.84224 2.43699 5.52841C2.15737 6.21458 2.01993 6.95129 2.03315 7.69311C2.01914 8.43658 2.15617 9.17505 2.43579 9.863C2.71542 10.551 3.13171 11.1738 3.65898 11.6931C4.17296 12.2269 4.78966 12.6489 5.47117 12.9332C6.15268 13.2175 6.8846 13.3581 7.62195 13.3464C8.89783 13.3668 10.1397 12.9308 11.1276 12.1157C11.3015 11.9936 11.5073 11.9265 11.719 11.9229Z" fill="#DBD7AD"/><path d="M16.0728 5.61785V5.80862C16.539 5.43022 17.0635 5.13155 17.6255 4.92452C18.1998 4.71674 18.8059 4.61259 19.4159 4.61682C19.7169 4.61781 20.0175 4.63699 20.3162 4.67426C20.6185 4.70756 20.9159 4.7764 21.2023 4.87939C21.4522 4.96652 21.6808 5.10638 21.873 5.28964C21.962 5.37651 22.0318 5.48131 22.0781 5.59723C22.1243 5.71315 22.1458 5.83759 22.1412 5.96246C22.1418 6.09805 22.1141 6.23224 22.0599 6.35631C22.0076 6.47572 21.9347 6.58477 21.8445 6.67836C21.7565 6.7723 21.6499 6.8464 21.5315 6.8958C21.4068 6.94903 21.2727 6.97624 21.1373 6.9758C20.9915 6.9701 20.8483 6.93451 20.7166 6.87118C20.3007 6.70827 19.8579 6.62682 19.4119 6.63118C18.9636 6.62813 18.5195 6.7182 18.1071 6.8958C17.305 7.23505 16.667 7.87894 16.3309 8.68862C16.155 9.1048 16.0657 9.55307 16.0687 10.0055V14.385C16.0688 14.6498 15.9648 14.9038 15.7797 15.0914C15.5946 15.279 15.3434 15.385 15.0811 15.3861C14.9493 15.3885 14.8184 15.3638 14.6964 15.3133C14.5744 15.2629 14.464 15.1878 14.3718 15.0927C14.278 15.0011 14.2038 14.891 14.1539 14.7693C14.1039 14.6475 14.0791 14.5168 14.0812 14.385V5.61785C14.0791 5.4861 14.1039 5.35534 14.1539 5.23362C14.2038 5.1119 14.278 5.00181 14.3718 4.91016C14.5594 4.72251 14.8129 4.61723 15.077 4.61723C15.3411 4.61723 15.5946 4.72251 15.7822 4.91016C15.876 5.00181 15.9502 5.1119 16.0001 5.23362C16.0501 5.35534 16.0749 5.4861 16.0728 5.61785Z" fill="#DBD7AD"/><path d="M31.382 12.3564C31.5132 12.3527 31.6437 12.3761 31.7655 12.4251C31.8874 12.4741 31.9981 12.5478 32.0907 12.6415C32.1834 12.7352 32.2561 12.8471 32.3045 12.9702C32.3528 13.0933 32.3757 13.2251 32.3718 13.3574C32.3741 13.4905 32.3502 13.6227 32.3013 13.7464C32.2525 13.87 32.1797 13.9825 32.0872 14.0774C31.0673 14.9663 29.7519 15.4327 28.4053 15.3828C27.0586 15.333 25.7806 14.7706 24.8279 13.8087C24.3233 13.3158 23.9242 12.7235 23.6554 12.0687C23.3866 11.4138 23.2537 10.7103 23.2651 10.0015C23.2537 9.29278 23.3866 8.58922 23.6554 7.93437C23.9242 7.27952 24.3233 6.6873 24.8279 6.19435C25.3231 5.69419 25.9112 5.29743 26.5584 5.02673C27.2056 4.75603 27.8993 4.6167 28.5998 4.6167C29.3004 4.6167 29.9941 4.75603 30.6413 5.02673C31.2885 5.29743 31.8765 5.69419 32.3718 6.19435C32.8749 6.68683 33.2738 7.27719 33.5444 7.92973C33.8106 8.58719 33.9453 9.29131 33.9407 10.0015C33.9445 10.1347 33.9206 10.2672 33.8705 10.3906C33.8205 10.5139 33.7454 10.6252 33.6501 10.7174C33.5565 10.8099 33.4455 10.8826 33.3237 10.9312C33.2019 10.9798 33.0717 11.0034 32.9408 11.0005H25.3888C25.4936 11.3478 25.655 11.675 25.8664 11.9687C26.0714 12.2568 26.3204 12.5102 26.6041 12.7195C26.8881 12.9295 27.2029 13.0935 27.5369 13.2056C27.8796 13.3209 28.2386 13.3791 28.5998 13.3779C28.992 13.3824 29.3819 13.3178 29.7521 13.1872C30.1075 13.0543 30.4365 12.8584 30.7236 12.6087C30.908 12.4511 31.1404 12.362 31.382 12.3564ZM31.8108 9.00255C31.7045 8.65512 31.5418 8.32792 31.3292 8.03435C31.1208 7.74773 30.8699 7.4952 30.5854 7.28563C30.3014 7.07561 29.9866 6.91159 29.6526 6.79948C29.3133 6.68468 28.9577 6.62648 28.5998 6.62717C28.2407 6.62665 27.8838 6.68484 27.543 6.79948C27.2056 6.91108 26.8874 7.0751 26.6001 7.28563C26.3136 7.49286 26.0623 7.74573 25.8562 8.03435C25.6465 8.32757 25.4883 8.6551 25.3888 9.00255H31.8108Z" fill="#DBD7AD"/><path d="M44.1367 14.3851V14.1943C43.6705 14.5728 43.146 14.8714 42.5841 15.0785C42.0097 15.2862 41.4037 15.3904 40.7936 15.3861C40.0914 15.3976 39.3944 15.2635 38.7456 14.9922C38.0968 14.7209 37.5101 14.3181 37.0217 13.8087C36.517 13.3158 36.118 12.7235 35.8492 12.0687C35.5803 11.4138 35.4475 10.7103 35.4589 10.0015C35.4475 9.29278 35.5803 8.58922 35.8492 7.93437C36.118 7.27952 36.517 6.6873 37.0217 6.19435C37.5169 5.69419 38.1049 5.29743 38.7521 5.02673C39.3993 4.75603 40.093 4.6167 40.7936 4.6167C41.4942 4.6167 42.1879 4.75603 42.8351 5.02673C43.4823 5.29743 44.0703 5.69419 44.5655 6.19435C45.0713 6.68677 45.4715 7.27875 45.7414 7.93363C46.0112 8.58851 46.145 9.29234 46.1345 10.0015V14.3851C46.1345 14.5171 46.1086 14.6478 46.0584 14.7696C46.0082 14.8915 45.9346 15.0021 45.8418 15.0951C45.7491 15.1882 45.639 15.2618 45.518 15.3117C45.397 15.3617 45.2674 15.387 45.1366 15.3861C45.0048 15.3886 44.8739 15.3638 44.752 15.3134C44.63 15.263 44.5195 15.1879 44.4274 15.0928C44.3336 15.0012 44.2594 14.8911 44.2094 14.7693C44.1594 14.6476 44.1347 14.5169 44.1367 14.3851ZM40.7936 6.62717C40.3415 6.62285 39.8936 6.7144 39.4787 6.89589C39.0834 7.06693 38.7245 7.31351 38.4219 7.62204C38.1197 7.93101 37.8784 8.29506 37.7106 8.69486C37.5389 9.10869 37.4505 9.55287 37.4505 10.0015C37.4505 10.4502 37.5389 10.8944 37.7106 11.3082C37.8784 11.708 38.1197 12.072 38.4219 12.381C38.7245 12.6895 39.0834 12.9361 39.4787 13.1072C39.8931 13.2845 40.3385 13.3759 40.7885 13.3759C41.2386 13.3759 41.684 13.2845 42.0983 13.1072C42.4956 12.9345 42.8564 12.6866 43.1612 12.3769C43.4634 12.0675 43.7054 11.7036 43.8746 11.3041C44.0476 10.892 44.1368 10.4491 44.1368 10.0015C44.1368 9.55398 44.0476 9.11101 43.8746 8.69896C43.7054 8.29947 43.4634 7.93556 43.1612 7.62614C42.8564 7.31647 42.4956 7.06859 42.0983 6.89589C41.6869 6.71504 41.2424 6.62349 40.7936 6.62717Z" fill="#DBD7AD"/><path d="M48.5854 4.61703H49.0346V1.00267C49.0322 0.870878 49.0567 0.74 49.1067 0.618228C49.1567 0.496457 49.2311 0.386413 49.3252 0.294981C49.4173 0.199797 49.5278 0.124664 49.6497 0.0742147C49.7717 0.0237656 49.9027 -0.000930855 50.0345 0.00164786C50.1646 -0.000131078 50.2938 0.024972 50.414 0.0754153C50.5343 0.125859 50.643 0.200577 50.7336 0.294981C50.8276 0.386413 50.902 0.496457 50.952 0.618228C51.002 0.74 51.0266 0.870878 51.0242 1.00267V4.61703H52.2151C52.3448 4.61471 52.4735 4.63959 52.5931 4.69008C52.7128 4.74057 52.8207 4.81558 52.9101 4.91037C53.003 5.00252 53.0763 5.11279 53.1256 5.23446C53.1748 5.35612 53.199 5.48664 53.1967 5.61806C53.1992 5.75072 53.1751 5.88252 53.1258 6.00554C53.0766 6.12856 53.0032 6.24027 52.9101 6.33396C52.8207 6.42874 52.7128 6.50375 52.5931 6.55424C52.4735 6.60473 52.3448 6.62961 52.2151 6.62729H51.0242V11.4642C51.0242 12.7387 51.6596 13.376 52.9305 13.376C53.0601 13.3741 53.1887 13.3991 53.3083 13.4496C53.4279 13.5 53.5358 13.5749 53.6255 13.6693C53.8081 13.8605 53.9101 14.1156 53.9101 14.3811C53.9101 14.6466 53.8081 14.9018 53.6255 15.0929C53.5358 15.1874 53.4279 15.2622 53.3083 15.3127C53.1887 15.3632 53.0601 15.3882 52.9305 15.3863C50.3332 15.3863 49.0346 14.0789 49.0346 11.4642V6.62729H48.5854C48.4566 6.62831 48.3288 6.60283 48.21 6.5524C48.0912 6.50196 47.9839 6.42764 47.8945 6.33396C47.8004 6.24076 47.7262 6.12923 47.6762 6.00616C47.6263 5.88309 47.6016 5.75104 47.6038 5.61806C47.6038 5.35434 47.7069 5.10126 47.8907 4.91383C48.0745 4.72639 48.3242 4.61973 48.5854 4.61703Z" fill="#DBD7AD"/><path d="M62.8277 12.3561C62.9585 12.353 63.0887 12.3768 63.2102 12.426C63.3317 12.4753 63.442 12.549 63.5344 12.6426C63.6268 12.7363 63.6993 12.8479 63.7476 12.9707C63.7959 13.0935 63.819 13.225 63.8153 13.3571C63.8179 13.4904 63.7939 13.6228 63.7446 13.7465C63.6954 13.8702 63.622 13.9827 63.5288 14.0771C62.5089 14.966 61.1934 15.4324 59.8468 15.3825C58.5002 15.3327 57.2221 14.7703 56.2694 13.8084C55.7652 13.3151 55.3664 12.7229 55.0976 12.0681C54.8288 11.4133 54.6957 10.7099 54.7066 10.0012C54.6957 9.29254 54.8288 8.58912 55.0976 7.93434C55.3664 7.27956 55.7652 6.68728 56.2694 6.19404C56.7648 5.69382 57.353 5.29701 58.0004 5.02628C58.6478 4.75555 59.3417 4.61621 60.0424 4.61621C60.7431 4.61621 61.437 4.75555 62.0844 5.02628C62.7317 5.29701 63.3199 5.69382 63.8153 6.19404C64.3179 6.68659 64.7161 7.27697 64.9859 7.92942C65.25 8.58731 65.3826 9.29141 65.3761 10.0012C65.3804 10.1345 65.3568 10.2672 65.3067 10.3905C65.2566 10.5139 65.1812 10.6252 65.0855 10.7171C64.9921 10.8098 64.8811 10.8826 64.7593 10.9312C64.6375 10.9798 64.5072 11.0033 64.3763 11.0002H56.8365C56.9414 11.347 57.1021 11.6741 57.312 11.9684C57.517 12.2565 57.766 12.5099 58.0497 12.7192C58.3342 12.9296 58.6497 13.0937 58.9846 13.2053C59.3266 13.3206 59.6849 13.3788 60.0454 13.3776C60.4376 13.3824 60.8276 13.3179 61.1977 13.1869C61.5537 13.054 61.8834 12.8581 62.1712 12.6084C62.3547 12.4505 62.5866 12.3614 62.8277 12.3561ZM63.2565 9.00224C63.1511 8.65443 62.9882 8.32708 62.7748 8.03404C62.3562 7.4579 61.7702 7.02771 61.0982 6.80327C60.7589 6.68846 60.4033 6.63027 60.0454 6.63096C59.6863 6.63058 59.3294 6.68877 58.9886 6.80327C58.6514 6.91545 58.3334 7.07942 58.0457 7.28942C57.7631 7.49627 57.5154 7.74769 57.312 8.03404C57.1029 8.32736 56.9454 8.6549 56.8466 9.00224H63.2565Z" fill="#DBD7AD"/><path d="M72.2391 4.61687C73.4577 4.60031 74.6427 5.0196 75.5843 5.80046V1.00251C75.5797 0.869997 75.6022 0.737959 75.6504 0.61458C75.6985 0.491202 75.7712 0.379112 75.864 0.28526C75.9567 0.191407 76.0677 0.117793 76.1898 0.0689787C76.3119 0.0201647 76.4427 -0.00280823 76.574 0.00148405C76.705 -0.00160095 76.8352 0.0218622 76.957 0.070485C77.0789 0.119108 77.1898 0.191902 77.2833 0.284561C77.3789 0.376936 77.4542 0.488606 77.5043 0.612303C77.5544 0.736 77.5781 0.868953 77.5739 1.00251V10.0015C77.5869 10.7106 77.4546 11.4149 77.1854 12.07C76.9161 12.7252 76.5156 13.3171 76.009 13.8087C75.2625 14.5599 74.3122 15.0711 73.2781 15.2779C72.244 15.4846 71.1724 15.3776 70.1985 14.9704C69.2246 14.5631 68.392 13.8739 67.8058 12.9896C67.2195 12.1053 66.9059 11.0655 66.9044 10.0015C66.8935 9.29281 67.0265 8.58939 67.2953 7.93461C67.5641 7.27982 67.9629 6.68755 68.4672 6.1943C68.9557 5.68514 69.5425 5.28246 70.1912 5.01115C70.84 4.73984 71.537 4.60565 72.2391 4.61687ZM75.5843 10.0015C75.5871 9.55367 75.4978 9.11013 75.3221 8.69892C75.1529 8.29893 74.9102 7.93491 74.6067 7.6261C74.3023 7.31596 73.9414 7.06801 73.5438 6.89584C73.1295 6.71852 72.6841 6.62714 72.234 6.62714C71.784 6.62714 71.3386 6.71852 70.9242 6.89584C70.5289 7.06689 70.17 7.31346 69.8674 7.622C69.5659 7.93105 69.3252 8.29511 69.1582 8.69482C68.9851 9.10831 68.896 9.55262 68.896 10.0015C68.896 10.4504 68.9851 10.8947 69.1582 11.3082C69.3252 11.7079 69.5659 12.0719 69.8674 12.381C70.17 12.6895 70.5289 12.9361 70.9242 13.1071C71.3386 13.2844 71.784 13.3758 72.234 13.3758C72.6841 13.3758 73.1295 13.2844 73.5438 13.1071C73.9414 12.935 74.3023 12.687 74.6067 12.3769C74.9102 12.0681 75.1529 11.704 75.3221 11.304C75.4978 10.8928 75.5871 10.4493 75.5843 10.0015Z" fill="#DBD7AD"/><path d="M86.8046 5.80866C87.7415 5.01863 88.929 4.59556 90.1497 4.61687C90.8515 4.60794 91.5478 4.74318 92.1963 5.01436C92.8447 5.28553 93.4317 5.68698 93.9216 6.1943C94.4241 6.68733 94.8229 7.27755 95.0943 7.92969C95.3583 8.58758 95.4909 9.29168 95.4844 10.0015C95.4981 10.7105 95.3663 11.4148 95.0974 12.07C94.8284 12.7252 94.4281 13.3171 93.9216 13.8087C93.1756 14.5616 92.225 15.0743 91.1903 15.282C90.1555 15.4897 89.083 15.3831 88.1083 14.9756C87.1336 14.5681 86.3004 13.8781 85.7142 12.9927C85.128 12.1073 84.8151 11.0664 84.815 10.0015V1.00251C84.8104 0.869997 84.8329 0.737959 84.881 0.61458C84.9292 0.491202 85.0019 0.379112 85.0947 0.28526C85.1874 0.191407 85.2983 0.117793 85.4205 0.0689787C85.5426 0.0201647 85.6734 -0.00280823 85.8047 0.00148405C85.9357 -0.00160095 86.0659 0.0218622 86.1877 0.070485C86.3096 0.119108 86.4205 0.191902 86.514 0.284561C86.6096 0.376936 86.6849 0.488606 86.735 0.612303C86.7851 0.736 86.8088 0.868953 86.8046 1.00251V5.80866ZM90.1497 13.3758C90.5985 13.3795 91.043 13.288 91.4544 13.1071C91.8517 12.9344 92.2125 12.6865 92.5173 12.3769C92.8195 12.0674 93.0614 11.7035 93.2306 11.304C93.4037 10.892 93.4929 10.449 93.4929 10.0015C93.4929 9.55394 93.4037 9.11097 93.2306 8.69892C93.0614 8.29942 92.8195 7.93552 92.5173 7.6261C92.2125 7.31643 91.8517 7.06855 91.4544 6.89584C91.0401 6.71852 90.5947 6.62714 90.1446 6.62714C89.6946 6.62714 89.2491 6.71852 88.8348 6.89584C88.4392 7.06638 88.0803 7.31302 87.778 7.622C87.4758 7.93097 87.2345 8.29502 87.0667 8.69482C86.8937 9.10831 86.8045 9.55262 86.8045 10.0015C86.8045 10.4504 86.8937 10.8947 87.0667 11.3082C87.2345 11.708 87.4758 12.072 87.778 12.381C88.0803 12.6899 88.4392 12.9366 88.8348 13.1071C89.2496 13.2886 89.6976 13.3802 90.1497 13.3758Z" fill="#DBD7AD"/><path d="M100.514 14.3851L97.0839 6.06917C97.0218 5.92691 96.9893 5.77332 96.9883 5.61789C96.988 5.4854 97.0143 5.35421 97.0656 5.23225C97.1127 5.11301 97.1817 5.00376 97.2688 4.9102C97.3581 4.81746 97.4653 4.74416 97.5838 4.69481C97.707 4.64148 97.84 4.61492 97.974 4.61687C98.1707 4.61661 98.363 4.67514 98.5268 4.78507C98.704 4.90561 98.8402 5.07818 98.917 5.27943L101.594 11.7328L104.27 5.26097C104.339 5.08022 104.452 4.92004 104.599 4.79533C104.775 4.66525 104.991 4.60205 105.209 4.61687C105.34 4.61568 105.47 4.64102 105.591 4.69141C105.712 4.74179 105.822 4.81619 105.914 4.9102C106.003 5.00478 106.075 5.11363 106.128 5.23225C106.182 5.35333 106.21 5.48492 106.209 5.61789C106.206 5.77416 106.17 5.92796 106.103 6.06917L100.616 19.3287C100.537 19.5232 100.405 19.6916 100.236 19.8148C100.046 19.952 99.8141 20.0169 99.5813 19.9982C99.3485 19.9794 99.1297 19.8781 98.9637 19.7122C98.871 19.6177 98.7981 19.5051 98.7496 19.3814C98.701 19.2577 98.6778 19.1253 98.6812 18.9923C98.6814 18.8394 98.7139 18.6883 98.7768 18.5492L100.514 14.3851Z" fill="#DBD7AD"/></svg>
