<svg width="144" height="26" viewBox="0 0 144 26" fill="none" xmlns="http://www.w3.org/2000/svg"><path d="M99.4852 17.6417C99.6251 13.394 105.36 13.394 105.465 17.6417C105.535 19.7998 108.927 19.7998 108.892 17.6417C108.787 14.0791 106.304 10.9961 102.493 10.9961C98.681 10.9961 96.1982 14.0791 96.0933 17.6417C96.0233 19.7998 99.4503 19.7998 99.4852 17.6417Z" fill="#DF5A5F"/><path d="M13.8825 20.4503C14.7916 20.4161 15.5609 21.1012 15.5609 21.9918C15.5609 22.0261 15.5609 22.0603 15.5609 22.0946C15.5609 22.5742 15.3511 23.0195 15.0014 23.3278C13.3579 24.7665 11.2598 25.5202 9.05681 25.4859C6.64399 25.5202 4.30111 24.561 2.62262 22.8825C0.944138 21.2382 -0.034978 18.9431 -9.5517e-06 16.5794C-0.034978 14.2158 0.944138 11.9207 2.65759 10.2764C4.33608 8.56364 6.67896 7.63874 9.09178 7.67299C11.2948 7.63874 13.3929 8.39236 15.0364 9.8311C15.7708 10.4477 15.8057 11.5439 15.1763 12.2632L15.1413 12.2975C14.8266 12.6058 14.372 12.7771 13.9174 12.7771C13.4978 12.7771 13.1132 12.6401 12.7984 12.4003C12.2739 11.9549 11.6794 11.6124 11.05 11.3726C10.4206 11.1328 9.75618 11.03 9.05681 11.03C8.28751 11.03 7.5182 11.1671 6.81883 11.4754C6.15443 11.7494 5.525 12.1605 5.00048 12.6743C4.54589 13.1539 4.12627 13.7362 3.84652 14.3871C3.25205 15.7916 3.25205 17.3673 3.84652 18.7718C4.12627 19.4227 4.54589 20.0393 5.07041 20.5531C5.59494 21.0669 6.22437 21.478 6.88877 21.752C7.58814 22.0603 8.35745 22.1974 9.12675 22.1974C9.79115 22.1974 10.4905 22.0946 11.12 21.8548C11.7494 21.615 12.3438 21.2725 12.8334 20.8271C13.1481 20.5874 13.4978 20.4503 13.8825 20.4503Z" fill="#DBD7AC"/><path d="M36.4721 16.5797C36.5071 18.9434 35.5629 21.2385 33.8145 22.8828C30.2477 26.3768 24.4779 26.3768 20.9112 22.8828C19.1627 21.2385 18.2186 18.9434 18.2536 16.5797C18.2186 14.2161 19.1977 11.921 20.9112 10.2767C24.4779 6.78264 30.2128 6.78264 33.7795 10.2425C33.7795 10.2425 33.7795 10.2425 33.8145 10.2767C34.6538 11.0988 35.3531 12.0923 35.8077 13.1542C36.2273 14.2504 36.4721 15.415 36.4721 16.5797ZM27.3803 10.9961C26.611 10.9961 25.8417 11.1331 25.1423 11.4414C24.4779 11.7154 23.8485 12.1265 23.324 12.6403C22.7995 13.1542 22.3798 13.7708 22.1001 14.4216C21.5056 15.7919 21.5056 17.3676 22.1001 18.7378C22.3798 19.3887 22.7995 20.0053 23.324 20.5191C23.8485 21.033 24.443 21.444 25.1423 21.7181C26.576 22.3004 28.1846 22.3004 29.6183 21.7181C30.2827 21.444 30.9121 21.033 31.4367 20.5191C31.9612 20.0053 32.3808 19.3887 32.6606 18.7378C33.255 17.3676 33.255 15.7919 32.6606 14.4216C32.3808 13.7708 31.9612 13.1542 31.4367 12.6403C30.9121 12.1265 30.3177 11.7154 29.6183 11.4414C28.884 11.1331 28.1496 10.9618 27.3803 10.9961Z" fill="#DBD7AC"/><path d="M48.1865 7.639C50.2496 7.60474 52.2778 8.28985 53.8863 9.59157V1.64427C53.8514 0.753623 54.5507 0 55.4599 0C55.4949 0 55.5298 0 55.5648 0C56.0194 0 56.439 0.171278 56.7887 0.479578C57.1034 0.787879 57.3132 1.2332 57.2783 1.67852V16.5797C57.3132 18.9433 56.3691 21.2385 54.6207 22.8827C51.0539 26.3768 45.2841 26.3768 41.7173 22.8827C40.0039 21.2042 39.0597 18.9433 39.0597 16.5797C39.0247 14.2161 39.9689 11.9209 41.7173 10.2767C43.4308 8.5639 45.7737 7.60474 48.1865 7.639ZM53.8863 16.5797C53.8863 15.8261 53.7465 15.1067 53.4317 14.4216C53.152 13.7707 52.7324 13.1542 52.2078 12.6403C51.6833 12.1265 51.0539 11.7154 50.3895 11.4414C48.9558 10.859 47.3472 10.859 45.9135 11.4414C44.5498 12.0237 43.4657 13.0856 42.9062 14.4216C42.3118 15.7918 42.3118 17.3676 42.9062 18.7378C43.4657 20.0738 44.5498 21.1357 45.9135 21.718C47.3472 22.3004 48.9558 22.3004 50.3895 21.718C51.0539 21.444 51.6833 21.0329 52.2078 20.5191C52.7324 20.0053 53.152 19.3887 53.4317 18.7378C53.7465 18.0527 53.8863 17.3333 53.8863 16.5797Z" fill="#DBD7AC"/><path d="M73.7484 20.4849C74.6576 20.4506 75.4269 21.17 75.4269 22.0607C75.4269 22.0949 75.4269 22.1292 75.4269 22.1634C75.4269 22.6087 75.252 23.0541 74.9373 23.3624C71.3356 26.4111 65.9155 26.2056 62.5585 22.917C60.8101 21.2728 59.8659 18.9776 59.9009 16.614C59.8659 14.2504 60.845 11.9553 62.5585 10.311C66.1253 6.81691 71.8951 6.81691 75.4269 10.311C76.3011 11.1331 76.9655 12.0923 77.4201 13.1885C77.8747 14.2846 78.0845 15.4493 78.0845 16.614C78.0845 17.0593 77.9096 17.4704 77.5949 17.7787C77.2802 18.087 76.8256 18.2583 76.371 18.2583H63.4677C63.6425 18.8406 63.9223 19.3887 64.272 19.8683C64.9713 20.8274 65.9854 21.5468 67.1394 21.9236C67.7338 22.1292 68.3283 22.1977 68.9577 22.1977C69.6221 22.1977 70.2865 22.0949 70.916 21.8894C71.5104 21.6838 72.0699 21.3413 72.5595 20.9302C72.9441 20.6219 73.3637 20.4849 73.7484 20.4849ZM74.4827 14.9012C74.3079 14.3189 74.0281 13.7708 73.6435 13.2912C73.2938 12.8116 72.8392 12.4006 72.3846 12.058C71.8951 11.7155 71.3705 11.4414 70.7761 11.2701C70.1816 11.0646 69.5872 10.9961 68.9927 10.9961C68.3633 10.9961 67.7688 11.0989 67.1743 11.2701C66.6148 11.4414 66.0553 11.7155 65.5658 12.058C65.0762 12.4006 64.6566 12.8116 64.3419 13.2912C63.9922 13.7708 63.7125 14.3189 63.5376 14.9012H74.4827Z" fill="#DBD7AC"/><path d="M99.4852 17.0591C99.5551 25.0064 89.5541 28.9801 83.9242 23.3622C80.3575 20.0394 80.3575 14.0446 83.9242 10.7561C89.6241 5.13819 99.4852 9.14609 99.4852 17.0591ZM90.3584 11.4755C86.372 11.407 83.4696 15.6547 85.0782 19.2515C87.0364 23.8075 93.6455 23.7732 95.6037 19.2515C97.2472 15.6889 94.3448 11.407 90.3584 11.4755Z" fill="#DF5A5F"/><path d="M123.683 17.0591C123.788 25.0064 113.787 28.9801 108.122 23.3622C104.556 20.0394 104.556 14.0446 108.122 10.7561C113.857 5.13819 123.718 9.14609 123.683 17.0591ZM114.592 11.4755C110.57 11.407 107.703 15.6547 109.346 19.2515C111.305 23.8075 117.914 23.7732 119.872 19.2515C121.48 15.6889 118.578 11.407 114.592 11.4755Z" fill="#DF5A5F"/><path d="M130.397 9.52293C132.81 7.77589 135.957 7.39908 138.72 8.52952C139.734 8.94058 140.643 9.55719 141.412 10.3108C142.217 11.0644 142.846 11.9551 143.266 12.9485C143.72 13.9762 143.965 15.0723 143.965 16.2028V24.0473C143.965 24.4926 143.79 24.9379 143.475 25.2462C143.161 25.5545 142.741 25.7258 142.287 25.7258C141.342 25.7258 140.573 25.0065 140.573 24.0816V24.0473V16.2028C140.573 15.5519 140.433 14.8668 140.153 14.2845C139.629 13.0855 138.65 12.1264 137.426 11.6125C136.167 11.0987 134.733 11.0987 133.474 11.6125C132.88 11.8523 132.321 12.2291 131.866 12.6744C131.411 13.1198 131.027 13.6679 130.747 14.2845C130.467 14.9011 130.362 15.5519 130.362 16.2028V24.0473C130.362 24.4926 130.187 24.9379 129.873 25.2462C129.558 25.5545 129.138 25.7258 128.684 25.7258C127.74 25.7258 126.97 25.0065 126.97 24.0816C126.97 24.0816 126.97 24.0816 126.97 24.0473V9.55718C126.97 9.11186 127.145 8.7008 127.46 8.39249C127.775 8.04994 128.229 7.87866 128.684 7.91292C129.628 7.87866 130.362 8.59803 130.397 9.52293Z" fill="#DBD7AC"/></svg>