<svg width="40" height="26" viewBox="0 0 40 26" fill="none" xmlns="http://www.w3.org/2000/svg"><path d="M0.1875 3.84705C0.1875 2.0177 1.64491 0.534729 3.44271 0.534729H35.9948C37.7926 0.534729 39.25 2.0177 39.25 3.84705C39.25 5.67639 37.7926 7.15936 35.9948 7.15936H3.44271C1.64491 7.15936 0.1875 5.67639 0.1875 3.84705Z" fill="white"/><path d="M0.1875 13.1215C0.1875 11.2922 1.64491 9.80922 3.44271 9.80922H35.9948C37.7926 9.80922 39.25 11.2922 39.25 13.1215C39.25 14.9509 37.7926 16.4339 35.9948 16.4339H3.44271C1.64491 16.4339 0.1875 14.9509 0.1875 13.1215Z" fill="white"/><path d="M0.1875 22.396C0.1875 20.5667 1.64491 19.0837 3.44271 19.0837H35.9948C37.7926 19.0837 39.25 20.5667 39.25 22.396C39.25 24.2254 37.7926 25.7083 35.9948 25.7083H3.44271C1.64491 25.7083 0.1875 24.2254 0.1875 22.396Z" fill="white"/></svg>