<svg width="75" height="75" viewBox="0 0 75 75" fill="none" xmlns="http://www.w3.org/2000/svg"><path fill-rule="evenodd" clip-rule="evenodd" d="M37.5007 8.59448C53.4632 8.59448 66.4069 21.5382 66.4069 37.5007C66.4069 53.4632 53.4632 66.407 37.5007 66.407C21.535 66.407 8.59442 53.4632 8.59442 37.5007C8.59442 21.5382 21.535 8.59448 37.5007 8.59448Z" stroke="white" stroke-width="4.6875" stroke-linecap="round" stroke-linejoin="round"/><path d="M23.5023 41.2422C21.4366 41.2422 19.7585 39.5641 19.7585 37.5016C19.7585 35.4391 21.4366 33.7578 23.5023 33.7578C25.5679 33.7578 27.246 35.4391 27.246 37.5016C27.246 39.5641 25.5679 41.2422 23.5023 41.2422Z" fill="white"/><path d="M37.5007 41.2422C35.4351 41.2422 33.7569 39.5641 33.7569 37.5016C33.7569 35.4391 35.4351 33.7578 37.5007 33.7578C39.5663 33.7578 41.2444 35.4391 41.2444 37.5016C41.2444 39.5641 39.5663 41.2422 37.5007 41.2422Z" fill="white"/><path d="M51.4976 41.2422C49.4319 41.2422 47.7538 39.5641 47.7538 37.5016C47.7538 35.4391 49.4319 33.7578 51.4976 33.7578C53.5632 33.7578 55.2413 35.4391 55.2413 37.5016C55.2413 39.5641 53.5632 41.2422 51.4976 41.2422Z" fill="white"/></svg>