<svg width="50" height="51" viewBox="0 0 50 51" fill="none" xmlns="http://www.w3.org/2000/svg"><path d="M24.9923 50.9411C18.3621 50.9471 12.0018 48.3153 7.3135 43.6258C2.62524 38.9364 -0.00595497 32.5745 1.01204e-05 25.9426V25.4426C0.204417 15.4238 6.36754 6.49414 15.6611 2.75162C24.9546 -0.990893 35.5842 1.1763 42.6719 8.25865C49.8258 15.4084 51.9669 26.1659 48.096 35.5111C44.2251 44.8563 35.1053 50.9471 24.9923 50.9411ZM24.9923 29.4674L31.4653 35.942L34.9892 32.4172L28.5162 25.9426L34.9892 19.468L31.4653 15.9432L24.9923 22.4178L18.5193 15.9432L14.9954 19.468L21.4684 25.9426L14.9954 32.4172L18.5193 35.942L24.9923 29.4699V29.4674Z" fill="#333333"/></svg> 