<?xml version="1.0" encoding="UTF-8"?> <svg xmlns="http://www.w3.org/2000/svg" viewBox="0 0 992.8 425.08"> <defs> <style>.cls-1{fill:none;stroke:#eb5c59;stroke-miterlimit:10;stroke-width:20px;}.cls-2{fill:#7e5251;}</style> </defs> <g id="Слой_2" data-name="Слой 2"> <g id="Слой_1-2" data-name="Слой 1"> <path class="cls-1" d="M347.42,364.56C225.34,480.23,4.28,383.66,10.11,212.74,5,50.61,206.23-49.33,332.5,48.93,187.33,108.22,197.58,319.38,347.42,364.56Z"></path> <path class="cls-1" d="M297.72,339.88c-96.14,68.2-241.24-7.8-237.61-127.14C57.07,99.6,188,22.65,285.37,78.17,205.11,144.91,211.81,281.21,297.72,339.88Z"></path> <path class="cls-1" d="M260.91,303.34c-65.32,36.63-152.49-15-150.49-90.59C108.83,141.12,187,89.54,252.14,118,217.65,172.17,221.7,253.1,260.91,303.34Z"></path> <path class="cls-2" d="M455.71,130.77q14.94,6.76,23,19.2t8.07,29.46q0,16.8-8.07,29.35t-23,19.2q-15,6.66-35.24,6.65H389.7v42.12H354.36V124h66.11Q440.77,124,455.71,130.77Zm-13,68.19q8.28-6.87,8.29-19.53,0-12.87-8.29-19.75t-24.22-6.87H389.7v53h28.81Q434.43,205.83,442.73,199Z"></path> <path class="cls-2" d="M511.9,124h35.34V276.75H511.9Z"></path> <path class="cls-2" d="M679.69,276.75l-36.88-53-36.22,53H566l56.51-77.68L568.84,124H609l35.13,49.53L678.6,124h38.18l-53.24,73.75,57,79Z"></path> <path class="cls-2" d="M852.72,248.38v28.37H734.46V124H849.88v28.36H769.59v33.17H840.5V213H769.59v35.35Z"></path> <path class="cls-2" d="M880.87,124h35.34V247.94H992.8v28.81H880.87Z"></path> </g> </g> </svg> 