<?xml version="1.0" encoding="UTF-8"?> <svg xmlns="http://www.w3.org/2000/svg" viewBox="0 0 366.81 425.08"> <defs> <style>.cls-1{fill:none;stroke:#eb5c59;stroke-miterlimit:10;stroke-width:20px;}</style> </defs> <g id="Слой_2" data-name="Слой 2"> <g id="Слой_1-2" data-name="Слой 1"> <path class="cls-1" d="M347.42,364.56C225.34,480.23,4.28,383.66,10.11,212.74,5,50.61,206.23-49.33,332.5,48.93,187.33,108.22,197.58,319.38,347.42,364.56Z"></path> <path class="cls-1" d="M297.72,339.88c-96.14,68.2-241.24-7.8-237.61-127.14C57.07,99.6,188,22.65,285.37,78.17,205.11,144.91,211.81,281.21,297.72,339.88Z"></path> <path class="cls-1" d="M260.91,303.34c-65.32,36.63-152.49-15-150.49-90.59C108.83,141.12,187,89.54,252.14,118,217.65,172.17,221.7,253.1,260.91,303.34Z"></path> </g> </g> </svg> 