<svg width="622" height="714" viewBox="0 0 622 714" fill="none" xmlns="http://www.w3.org/2000/svg"><path d="M298.092 714C462.724 714 596.185 580.349 596.185 415.483C596.185 250.616 462.724 116.965 298.092 116.965C133.46 116.965 0 250.616 0 415.483C0 580.349 133.46 714 298.092 714Z" fill="url(#paint0_linear)"/><path d="M501.193 0.500617L480.265 6.97601C474.532 8.74995 471.32 14.8423 473.092 20.5836L579.803 366.445C581.575 372.186 587.658 375.402 593.392 373.628L614.319 367.153C620.052 365.379 623.264 359.287 621.493 353.545L514.781 7.6842C513.01 1.94287 506.926 -1.27332 501.193 0.500617Z" fill="#B16BFF"/><path d="M574.585 354.008C572.825 348.263 450.42 351.157 450.42 351.157C433.97 229.927 359.023 115.333 359.023 115.333C371.388 113.679 475.322 32.2933 475.322 32.2933L574.585 354.008Z" fill="#7C30D8"/><path d="M359.306 116.965C359.306 116.965 258 185.208 228.361 194.783L281.882 368.479C281.882 368.479 377.494 353.486 450.702 352.811C450.702 352.811 482.819 182.096 359.306 116.965Z" fill="#AA61E9"/><path d="M174.481 222.174L96.563 246.284C85.0967 249.831 78.6734 262.016 82.2163 273.499L116.279 383.9C119.822 395.383 131.989 401.815 143.456 398.267L221.374 374.158C232.84 370.61 239.263 358.425 235.721 346.943L201.658 236.541C198.115 225.059 185.947 218.626 174.481 222.174Z" fill="#AA61E9"/><path d="M200.431 178.088L122.513 202.197C111.047 205.745 104.624 217.93 108.167 229.413L162.539 405.639C166.082 417.121 178.249 423.554 189.715 420.006L267.634 395.896C279.1 392.348 285.523 380.164 281.98 368.681L227.608 192.455C224.065 180.973 211.898 174.54 200.431 178.088Z" fill="#B762FF"/><path d="M188.638 419.987L259.652 398.009L279.969 525.136C279.969 525.136 289.313 555.079 258.848 558.387C258.848 558.387 235.227 566.09 223.428 535.843L188.638 419.987Z" fill="url(#paint1_linear)"/><defs><linearGradient id="paint0_linear" x1="87.3112" y1="626.564" x2="509.474" y2="205.002" gradientUnits="userSpaceOnUse"><stop stop-color="#AF62D0"/><stop offset="0.19" stop-color="#A05BCC"/><stop offset="0.56" stop-color="#7947C1"/><stop offset="1" stop-color="#422CB2"/></linearGradient><linearGradient id="paint1_linear" x1="234.967" y1="398.03" x2="234.967" y2="559.279" gradientUnits="userSpaceOnUse"><stop stop-color="#CB7AFF"/><stop offset="0.34" stop-color="#BF6BFB"/><stop offset="1" stop-color="#9F44F1"/></linearGradient></defs></svg>